<svg width="155" height="60" viewBox="0 0 155 60" fill="none" xmlns="http://www.w3.org/2000/svg">
<g clip-path="url(#clip0_556_13062)">
<path d="M139.786 17.1807H143.787V18.4447C144.671 17.4727 145.906 17.2058 147.334 17.2058V20.9928H146.123C145.608 20.9589 145.097 21.1037 144.673 21.4035C144.249 21.7034 143.937 22.1408 143.787 22.6445V29.317H139.786V17.1807Z" fill="white"/>
<path d="M125.462 23.248C125.462 19.3653 128.248 16.8877 132.031 16.8877C135.815 16.8877 138.601 19.3653 138.601 23.248C138.601 27.1306 135.815 29.6082 132.031 29.6082C128.248 29.6082 125.462 27.1356 125.462 23.248ZM129.507 23.248C129.507 24.8292 130.495 25.7659 132.031 25.7659C133.568 25.7659 134.555 24.8191 134.555 23.248C134.555 21.6768 133.568 20.73 132.031 20.73C130.495 20.73 129.497 21.6717 129.497 23.248H129.507Z" fill="white"/>
<path d="M84.9238 23.248C84.9238 19.3653 87.7097 16.8877 91.4982 16.8877C95.2868 16.8877 98.0677 19.3653 98.0677 23.248C98.0677 27.1306 95.2819 29.6082 91.4982 29.6082C87.7146 29.6082 84.9238 27.1356 84.9238 23.248ZM88.9742 23.248C88.9742 24.8292 89.9621 25.7659 91.4982 25.7659C93.0344 25.7659 94.0223 24.8191 94.0223 23.248C94.0223 21.6768 93.0344 20.73 91.4982 20.73C89.9621 20.73 88.9742 21.6717 88.9742 23.248Z" fill="white"/>
<path d="M71.2617 23.248C71.2617 19.3653 74.0476 16.8877 77.8312 16.8877C81.6148 16.8877 84.4007 19.3653 84.4007 23.248C84.4007 27.1306 81.6148 29.6082 77.8312 29.6082C74.0476 29.6082 71.2617 27.1356 71.2617 23.248ZM75.3071 23.248C75.3071 24.8292 76.295 25.7659 77.8312 25.7659C79.3674 25.7659 80.3553 24.8191 80.3553 23.248C80.3553 21.6768 79.3674 20.73 77.8312 20.73C76.295 20.73 75.3071 21.6717 75.3071 23.248Z" fill="white"/>
<path d="M112.072 17.1803H116.077V18.3486C116.544 17.8764 117.099 17.504 117.709 17.2533C118.319 17.0025 118.971 16.8784 119.629 16.8882C122.696 16.8882 124.934 19.3659 124.934 23.2485C124.934 27.1311 122.696 29.6088 119.629 29.6088C118.973 29.6226 118.322 29.5033 117.712 29.2577C117.102 29.0122 116.547 28.6453 116.077 28.1786V33.0835H112.081L112.072 17.1803ZM115.924 23.2233C115.924 23.8911 116.185 24.5316 116.648 25.0038C117.111 25.476 117.739 25.7412 118.394 25.7412C119.049 25.7412 119.677 25.476 120.14 25.0038C120.604 24.5316 120.864 23.8911 120.864 23.2233C120.864 22.5555 120.604 21.9151 120.14 21.4429C119.677 20.9707 119.049 20.7054 118.394 20.7054C117.739 20.7054 117.111 20.9707 116.648 21.4429C116.185 21.9151 115.924 22.5555 115.924 23.2233V23.2233Z" fill="white"/>
<path d="M152.57 17.2061H155V20.9931H152.57V23.8887C152.57 25.0268 153.094 25.6814 154.141 25.6814C154.259 25.6814 154.758 25.6361 154.877 25.6109V29.4281C154.234 29.5553 153.581 29.6194 152.926 29.6195C149.69 29.6195 148.569 27.1016 148.569 23.9642V20.9931H147.142V17.2061H148.569V14.7537L152.57 13.54V17.2061Z" fill="white"/>
<path d="M104.119 24.7794H103.259V29.3117H99.2832V12.3057H103.284V21.7227H104.094L107.498 17.1904H111.498V17.7494L107.547 22.8709V23.3744L111.785 28.7628V29.3218H107.567L104.119 24.7794Z" fill="white"/>
<path d="M66.0703 12.3057H70.0713V29.3167H66.0703V12.3057Z" fill="white"/>
<path d="M28.9501 59.0311C23.2243 59.0311 17.6271 57.3001 12.8663 54.0569C8.10549 50.8138 4.39488 46.2041 2.20371 40.811C0.0125435 35.4178 -0.560765 29.4833 0.556282 23.7579C1.67333 18.0326 4.43056 12.7735 8.47931 8.64575C12.5281 4.518 17.6865 1.70696 23.3023 0.568113C28.918 -0.570732 34.7389 0.0137648 40.0289 2.24769C45.3188 4.48161 49.8402 8.26463 53.0213 13.1184C56.2024 17.9721 57.9003 23.6785 57.9003 29.5161C57.8924 37.3415 54.8398 44.8441 49.4123 50.3775C43.9848 55.9109 36.6258 59.0231 28.9501 59.0311V59.0311ZM28.9501 7.47418C24.6741 7.47418 20.4941 8.76691 16.9387 11.1889C13.3833 13.6109 10.6122 17.0534 8.97588 21.081C7.33952 25.1086 6.91137 29.5405 7.74558 33.8162C8.57979 38.0919 10.6389 42.0194 13.6625 45.102C16.6861 48.1846 20.5384 50.2839 24.7323 51.1344C28.9262 51.9849 33.2732 51.5484 37.2237 49.8801C41.1743 48.2118 44.5509 45.3866 46.9265 41.7619C49.3021 38.1371 50.5701 33.8755 50.5701 29.5161C50.5623 23.6726 48.282 18.0708 44.2291 13.9389C40.1763 9.807 34.6817 7.48217 28.9501 7.47418V7.47418Z" fill="white"/>
<path d="M28.9501 44.2812C26.0858 44.2812 23.2857 43.4152 20.9041 41.7928C18.5225 40.1704 16.6662 37.8644 15.5701 35.1664C14.4739 32.4685 14.1871 29.4997 14.7459 26.6355C15.3047 23.7714 16.6841 21.1405 18.7095 19.0756C20.7349 17.0106 23.3154 15.6044 26.1247 15.0347C28.9341 14.465 31.846 14.7574 34.4923 15.8749C37.1387 16.9924 39.4005 18.8849 40.9919 21.313C42.5832 23.7411 43.4326 26.5958 43.4326 29.5161C43.4287 33.4308 41.9016 37.184 39.1865 39.9521C36.4713 42.7203 32.7899 44.2772 28.9501 44.2812V44.2812ZM28.9501 22.2292C27.5365 22.2292 26.1546 22.6566 24.9793 23.4573C23.8039 24.258 22.8878 25.396 22.3468 26.7275C21.8058 28.059 21.6643 29.5242 21.9401 30.9377C22.2159 32.3512 22.8966 33.6496 23.8962 34.6687C24.8957 35.6877 26.1693 36.3817 27.5557 36.6629C28.9422 36.9441 30.3793 36.7998 31.6853 36.2482C32.9913 35.6967 34.1076 34.7627 34.893 33.5644C35.6783 32.3661 36.0975 30.9573 36.0975 29.5161C36.0949 27.5843 35.341 25.7324 34.0012 24.3664C32.6614 23.0004 30.8449 22.2319 28.9501 22.2292V22.2292Z" fill="url(#paint0_linear_556_13062)"/>
<path d="M69.5486 45.2728C68.1686 45.2728 67.5086 44.4028 67.5086 43.0378V38.7928H65.7986V37.8478H67.5086V35.6128H68.5886V37.8478H71.1236V38.7928H68.5886V42.7078C68.5886 43.2778 68.6786 43.6828 68.8736 43.9078C69.0686 44.1328 69.3986 44.2528 69.8486 44.2528C70.2986 44.2528 70.6886 44.1478 71.0336 43.9528V44.9428C70.7186 45.1678 70.2236 45.2728 69.5486 45.2728ZM74.2089 45.0928H73.1289V37.8478H74.2089V45.0928ZM73.1289 35.8978C72.8439 35.5978 72.8439 35.1178 73.1289 34.8178C73.4289 34.5178 73.9089 34.5178 74.2089 34.8178C74.5089 35.1178 74.5089 35.5978 74.2089 35.8978C73.9089 36.1828 73.4289 36.1828 73.1289 35.8978ZM80.1282 45.2728C79.0332 45.2728 78.1032 44.9128 77.3682 44.1928C76.6332 43.4578 76.2732 42.5578 76.2732 41.4628C76.2732 40.3828 76.6482 39.4828 77.3832 38.7628C78.1182 38.0278 79.0482 37.6678 80.1432 37.6678C80.9832 37.6678 81.7182 37.8478 82.3332 38.1928V39.1978C81.6732 38.8228 80.9982 38.6428 80.2932 38.6428C79.4682 38.6428 78.7632 38.9128 78.2082 39.4528C77.6532 39.9778 77.3832 40.6528 77.3832 41.4778C77.3832 42.2878 77.6532 42.9628 78.2082 43.5028C78.7632 44.0278 79.4682 44.2978 80.2932 44.2978C81.1032 44.2978 81.8232 44.0878 82.4682 43.6678V44.6578C81.7932 45.0628 81.0132 45.2728 80.1282 45.2728ZM84.5145 34.5928H85.5945V40.8328L89.0445 37.8478H90.5145L86.6895 41.1178L91.0545 45.0928H89.5095L85.5945 41.5228V45.0928H84.5145V34.5928ZM95.5345 45.2728C94.4095 45.2728 93.4495 44.9128 92.6845 44.2078C91.9195 43.5028 91.5445 42.5878 91.5445 41.4778C91.5445 40.3828 91.8895 39.4828 92.5645 38.7628C93.2545 38.0278 94.1395 37.6678 95.2195 37.6678C97.6495 37.6678 98.6095 39.7978 98.6095 41.4328V41.7328H92.6545C92.7745 43.2928 94.0045 44.2978 95.7445 44.2978C96.5845 44.2978 97.3645 44.0728 98.0695 43.6228V44.5828C97.4695 45.0478 96.6295 45.2728 95.5345 45.2728ZM92.6695 40.8478H97.5145C97.4845 40.2928 97.2745 39.7828 96.8845 39.3328C96.5095 38.8678 95.9395 38.6428 95.1745 38.6428C94.4395 38.6428 93.8545 38.8678 93.4045 39.3028C92.9695 39.7378 92.7145 40.2478 92.6695 40.8478ZM103.369 45.2728C101.989 45.2728 101.329 44.4028 101.329 43.0378V38.7928H99.6189V37.8478H101.329V35.6128H102.409V37.8478H104.944V38.7928H102.409V42.7078C102.409 43.2778 102.499 43.6828 102.694 43.9078C102.889 44.1328 103.219 44.2528 103.669 44.2528C104.119 44.2528 104.509 44.1478 104.854 43.9528V44.9428C104.539 45.1678 104.044 45.2728 103.369 45.2728ZM108.029 45.0928H106.949V37.8478H108.029V45.0928ZM106.949 35.8978C106.664 35.5978 106.664 35.1178 106.949 34.8178C107.249 34.5178 107.729 34.5178 108.029 34.8178C108.329 35.1178 108.329 35.5978 108.029 35.8978C107.729 36.1828 107.249 36.1828 106.949 35.8978ZM111.699 40.2028V45.0928H110.619V37.8478H111.699V38.9578C112.464 38.1028 113.424 37.6678 114.594 37.6678C116.394 37.6678 117.354 38.7778 117.354 40.6828V45.0928H116.274V40.9228C116.274 39.0178 115.104 38.6878 114.219 38.6878C113.724 38.6878 113.244 38.8378 112.764 39.1528C112.299 39.4528 111.939 39.7978 111.699 40.2028ZM125.549 44.6278V43.8628C124.904 44.7178 123.974 45.1528 122.744 45.1528C121.679 45.1528 120.794 44.7928 120.119 44.0728C119.444 43.3378 119.099 42.4528 119.099 41.4178C119.099 40.3828 119.444 39.4978 120.119 38.7628C120.794 38.0278 121.679 37.6678 122.744 37.6678C123.989 37.6678 124.919 38.1028 125.549 38.9578V37.8478H126.629V44.6278C126.629 45.7678 126.254 46.6378 125.504 47.2378C124.769 47.8528 123.824 48.1528 122.699 48.1528C121.604 48.1528 120.659 47.9278 119.894 47.4928V46.4428C120.719 46.9378 121.619 47.1778 122.594 47.1778C124.334 47.1778 125.549 46.3528 125.549 44.6278ZM125.549 42.5878V40.2328C125.144 39.2878 124.124 38.6428 122.999 38.6428C122.204 38.6428 121.529 38.9128 121.004 39.4378C120.479 39.9628 120.209 40.6228 120.209 41.4178C120.209 42.2128 120.479 42.8728 121.004 43.3978C121.529 43.9228 122.204 44.1778 122.999 44.1778C124.124 44.1778 125.144 43.5328 125.549 42.5878Z" fill="white"/>
</g>
<defs>
<linearGradient id="paint0_linear_556_13062" x1="19.5997" y1="29.5161" x2="38.0832" y2="29.5161" gradientUnits="userSpaceOnUse">
<stop stop-color="#8000FF"/>
<stop offset="1" stop-color="#005EFF"/>
</linearGradient>
<clipPath id="clip0_556_13062">
<rect width="155" height="59.0301" fill="white"/>
</clipPath>
</defs>
</svg>
