<svg width="330" height="51" viewBox="0 0 330 51" fill="none" xmlns="http://www.w3.org/2000/svg">
<path d="M1.75486 31.5574H0V14.9574H6.972C10.292 14.9574 12.284 16.8071 12.284 19.558C12.284 22.38 10.292 24.2297 6.972 24.2297H1.75486V31.5574ZM1.75486 16.5463V22.6409H6.85343C9.20114 22.6409 10.5529 21.5263 10.5529 19.6054C10.5529 17.6371 9.20114 16.5463 6.85343 16.5463H1.75486Z" fill="url(#paint0_linear_51_283)" fill-opacity="0.7"/>
<path d="M15.6222 21.5974C16.7842 20.4117 18.2544 19.8188 20.0804 19.8188C21.9064 19.8188 23.3767 20.4117 24.5387 21.5974C25.7007 22.7594 26.2699 24.1823 26.2699 25.8423C26.2699 27.5023 25.7007 28.9251 24.5387 30.0871C23.3767 31.2491 21.9064 31.842 20.0804 31.842C18.2544 31.842 16.7842 31.2491 15.6222 30.0871C14.4602 28.9251 13.891 27.5023 13.891 25.8423C13.891 24.1823 14.4602 22.7594 15.6222 21.5974ZM24.515 25.8423C24.515 24.5617 24.0882 23.4946 23.2582 22.6409C22.4282 21.7871 21.361 21.3603 20.0804 21.3603C18.7999 21.3603 17.7327 21.7871 16.9027 22.6409C16.0727 23.4946 15.6459 24.5617 15.6459 25.8423C15.6459 27.0991 16.0727 28.1663 16.9027 29.02C17.7327 29.8737 18.7999 30.3006 20.0804 30.3006C21.361 30.3006 22.4282 29.8737 23.2582 29.02C24.0882 28.1663 24.515 27.0991 24.515 25.8423Z" fill="url(#paint1_linear_51_283)" fill-opacity="0.7"/>
<path d="M33.7002 31.6286H32.2062L28.1037 20.1034H29.8585L33.0599 29.02L36.1902 20.056H37.6368L40.7908 29.02L43.9685 20.1034H45.6996L41.5971 31.6286H40.1031L36.8779 22.6409L33.7002 31.6286Z" fill="url(#paint2_linear_51_283)" fill-opacity="0.7"/>
<path d="M53.8946 31.842C52.116 31.842 50.5983 31.2729 49.3889 30.1583C48.1795 29.0437 47.5866 27.5971 47.5866 25.8423C47.5866 24.1111 48.132 22.6883 49.1992 21.55C50.29 20.388 51.6892 19.8188 53.3966 19.8188C57.2383 19.8188 58.756 23.1863 58.756 25.7711V26.2454H49.3415C49.5312 28.7117 51.4757 30.3006 54.2266 30.3006C55.5546 30.3006 56.7877 29.9448 57.9023 29.2334V30.7511C56.9537 31.4863 55.6257 31.842 53.8946 31.842ZM49.3652 24.8463H57.0249C56.9775 23.9689 56.6455 23.1626 56.0289 22.4511C55.436 21.716 54.5349 21.3603 53.3255 21.3603C52.1635 21.3603 51.2386 21.716 50.5272 22.4037C49.8395 23.0914 49.4363 23.8977 49.3652 24.8463Z" fill="url(#paint3_linear_51_283)" fill-opacity="0.7"/>
<path d="M63.6717 31.5574H61.9643V20.1034H63.6717V22.2851C64.5255 20.7911 66.3515 19.8188 68.2249 19.8188V21.55C67.7032 21.55 67.2289 21.6211 66.802 21.7634C65.2843 22.1429 64.146 23.21 63.6717 24.3246V31.5574Z" fill="url(#paint4_linear_51_283)" fill-opacity="0.7"/>
<path d="M76.1962 31.842C74.4177 31.842 72.8999 31.2729 71.6905 30.1583C70.4811 29.0437 69.8882 27.5971 69.8882 25.8423C69.8882 24.1111 70.4336 22.6883 71.5008 21.55C72.5917 20.388 73.9908 19.8188 75.6982 19.8188C79.5399 19.8188 81.0577 23.1863 81.0577 25.7711V26.2454H71.6431C71.8328 28.7117 73.7774 30.3006 76.5282 30.3006C77.8562 30.3006 79.0894 29.9448 80.2039 29.2334V30.7511C79.2554 31.4863 77.9274 31.842 76.1962 31.842ZM71.6668 24.8463H79.3265C79.2791 23.9689 78.9471 23.1626 78.3305 22.4511C77.7377 21.716 76.8365 21.3603 75.6271 21.3603C74.4651 21.3603 73.5402 21.716 72.8288 22.4037C72.1411 23.0914 71.7379 23.8977 71.6668 24.8463Z" fill="url(#paint5_linear_51_283)" fill-opacity="0.7"/>
<path d="M93.6331 21.9294V14.9574H95.3405V31.5574H93.6331V29.7314C92.5659 31.1306 91.0956 31.842 89.1985 31.842C87.5148 31.842 86.1156 31.2491 85.0485 30.0871C83.9814 28.9251 83.4359 27.5023 83.4359 25.8423C83.4359 24.1586 83.9814 22.7357 85.0485 21.5737C86.1156 20.4117 87.5148 19.8188 89.1985 19.8188C91.0956 19.8188 92.5659 20.5303 93.6331 21.9294ZM93.6331 27.7157V23.9451C92.9691 22.4274 91.3328 21.3603 89.6016 21.3603C88.3448 21.3603 87.2776 21.7871 86.4476 22.6646C85.6176 23.5183 85.1908 24.5854 85.1908 25.8423C85.1908 27.0991 85.6176 28.1663 86.4476 29.02C87.2776 29.8737 88.3448 30.3006 89.6016 30.3006C91.3328 30.3006 92.9454 29.2097 93.6331 27.7157Z" fill="url(#paint6_linear_51_283)" fill-opacity="0.7"/>
<path d="M105.618 31.5574V14.9574H107.325V21.9294C108.393 20.5303 109.863 19.8188 111.76 19.8188C113.444 19.8188 114.843 20.4117 115.91 21.5737C116.977 22.7357 117.523 24.1586 117.523 25.8423C117.523 27.5023 116.977 28.9251 115.91 30.0871C114.843 31.2491 113.444 31.842 111.76 31.842C109.863 31.842 108.393 31.1306 107.325 29.7314V31.5574H105.618ZM107.325 23.9451V27.7157C108.013 29.2097 109.626 30.3006 111.357 30.3006C112.614 30.3006 113.681 29.8737 114.511 29.02C115.341 28.1663 115.768 27.0991 115.768 25.8423C115.768 24.5854 115.341 23.5183 114.511 22.6646C113.681 21.7871 112.614 21.3603 111.357 21.3603C109.626 21.3603 107.989 22.4274 107.325 23.9451Z" fill="url(#paint7_linear_51_283)" fill-opacity="0.7"/>
<path d="M121.172 36.3951C120.342 36.3951 119.726 36.2766 119.346 36.0631V34.4743C119.844 34.7351 120.366 34.8537 120.912 34.8537C122.334 34.8537 123.236 33.7154 124.303 31.1306L119.204 20.1034H121.101L125.156 29.1149L129.093 20.1034H130.943L125.275 32.838C124.255 35.2094 122.88 36.3951 121.172 36.3951Z" fill="url(#paint8_linear_51_283)" fill-opacity="0.7"/>
<path d="M202.28 24.2264C202.28 32.4657 207.547 38.2104 214.846 38.2104C222.144 38.2104 227.411 32.4657 227.411 24.2264C227.411 15.9872 222.144 10.2424 214.846 10.2424C207.547 10.2424 202.28 15.9872 202.28 24.2264ZM222.596 24.2264C222.596 30.1224 219.398 33.9397 214.846 33.9397C210.293 33.9397 207.096 30.1224 207.096 24.2264C207.096 18.3305 210.293 14.5132 214.846 14.5132C219.398 14.5132 222.596 18.3305 222.596 24.2264Z" fill="url(#paint9_linear_51_283)" fill-opacity="0.7"/>
<path d="M240.972 38.2111C246.502 38.2111 249.662 33.5245 249.662 27.8931C249.662 22.2617 246.502 17.5752 240.972 17.5752C238.413 17.5752 236.532 18.5957 235.291 20.0696V17.9531H230.776V44.5984H235.291V35.7166C236.532 37.1906 238.413 38.2111 240.972 38.2111ZM235.178 27.3262C235.178 23.5845 237.285 21.5436 240.069 21.5436C243.342 21.5436 245.11 24.1137 245.11 27.8931C245.11 31.6726 243.342 34.2426 240.069 34.2426C237.285 34.2426 235.178 32.1639 235.178 28.4978V27.3262Z" fill="url(#paint10_linear_51_283)" fill-opacity="0.7"/>
<path d="M261.88 38.2108C265.83 38.2108 268.952 36.1321 270.344 32.655L266.469 31.181C265.867 33.222 264.099 34.3558 261.88 34.3558C258.983 34.3558 256.951 32.2771 256.613 28.8756H270.457V27.3638C270.457 21.9214 267.41 17.575 261.691 17.575C255.973 17.575 252.286 22.0725 252.286 27.8929C252.286 34.0156 256.236 38.2108 261.88 38.2108ZM261.654 21.3922C264.513 21.3922 265.867 23.282 265.905 25.4741H256.838C257.516 22.7906 259.321 21.3922 261.654 21.3922Z" fill="url(#paint11_linear_51_283)" fill-opacity="0.7"/>
<path d="M273.845 37.7953H278.359V26.1546C278.359 23.32 280.428 21.8082 282.46 21.8082C284.943 21.8082 285.921 23.5845 285.921 26.0412V37.7953H290.436V24.7184C290.436 20.4476 287.953 17.5752 283.814 17.5752C281.256 17.5752 279.488 18.7468 278.359 20.0696V17.9531H273.845V37.7953Z" fill="url(#paint12_linear_51_283)" fill-opacity="0.7"/>
<path d="M303.658 10.6581L293.425 37.7947H298.203L300.498 31.5963H312.161L314.493 37.7947H319.347L309.114 10.6581H303.658ZM306.292 16.0249L310.581 27.3633H302.078L306.292 16.0249Z" fill="url(#paint13_linear_51_283)" fill-opacity="0.7"/>
<path d="M327.096 10.7369H322.281V37.8734H327.096V10.7369Z" fill="url(#paint14_linear_51_283)" fill-opacity="0.7"/>
<path d="M191.247 20.6251C192.385 17.1936 191.994 13.4347 190.174 10.3134C187.437 5.52612 181.935 3.06317 176.561 4.22221C174.17 1.51674 170.736 -0.0218132 167.135 0.000233735C161.643 -0.0123645 156.769 3.54033 155.079 8.79063C151.551 9.51661 148.505 11.7355 146.723 14.8803C143.965 19.655 144.594 25.6738 148.278 29.7682C147.14 33.1997 147.531 36.9587 149.351 40.0799C152.088 44.8672 157.59 47.3301 162.964 46.1711C165.353 48.8766 168.789 50.4151 172.39 50.3915C177.886 50.4057 182.761 46.8498 184.451 41.5948C187.979 40.8688 191.025 38.65 192.807 35.5051C195.561 30.7304 194.931 24.7164 191.249 20.6219L191.247 20.6251ZM172.393 47.0987C170.194 47.1018 168.063 46.3286 166.375 44.9129C166.452 44.8719 166.585 44.7979 166.671 44.7444L176.66 38.9492C177.171 38.6579 177.484 38.1114 177.481 37.5209V23.3746L181.703 25.8234C181.748 25.8455 181.778 25.8896 181.784 25.94V37.6547C181.778 42.8641 177.578 47.0876 172.393 47.0987ZM152.197 38.4327C151.095 36.5209 150.698 34.28 151.076 32.1052C151.149 32.1493 151.279 32.2296 151.372 32.2832L161.36 38.0783C161.867 38.376 162.494 38.376 163.002 38.0783L175.196 31.0044V35.902C175.199 35.9524 175.175 36.0012 175.136 36.0327L165.039 41.8893C160.542 44.4908 154.799 42.9444 152.198 38.4327H152.197ZM149.568 16.5291C150.665 14.6142 152.397 13.1496 154.46 12.389C154.46 12.4756 154.455 12.6284 154.455 12.7355V24.3274C154.452 24.9163 154.766 25.4628 155.275 25.7541L167.469 32.8265L163.248 35.2752C163.205 35.3036 163.152 35.3083 163.105 35.2878L153.007 29.4265C148.519 26.8155 146.98 21.0471 149.566 16.5307L149.568 16.5291ZM184.251 24.6376L172.057 17.5637L176.279 15.1165C176.321 15.0882 176.374 15.0834 176.421 15.1039L186.52 20.9605C191.015 23.5699 192.556 29.3478 189.959 33.8642C188.86 35.776 187.129 37.2406 185.068 38.0027V26.0644C185.073 25.4754 184.761 24.9305 184.253 24.6376H184.251ZM188.452 18.285C188.379 18.2393 188.249 18.1606 188.156 18.107L178.168 12.3118C177.661 12.0142 177.034 12.0142 176.527 12.3118L164.333 19.3857V14.4882C164.329 14.4378 164.353 14.389 164.392 14.3575L174.489 8.5056C178.986 5.89934 184.736 7.4505 187.329 11.9701C188.424 13.8787 188.821 16.1133 188.449 18.285H188.452ZM162.038 27.014L157.815 24.5652C157.769 24.5431 157.739 24.499 157.733 24.4486V12.7339C157.736 7.51821 161.948 3.29151 167.14 3.29466C169.336 3.29466 171.462 4.06945 173.15 5.48045C173.073 5.5214 172.942 5.59541 172.854 5.64895L162.865 11.4441C162.354 11.7355 162.041 12.2803 162.044 12.8709L162.038 27.014ZM164.331 22.0471L169.763 18.896L175.194 22.0455V28.3462L169.763 31.4958L164.331 28.3462V22.0471Z" fill="url(#paint15_linear_51_283)" fill-opacity="0.7"/>
<defs>
<linearGradient id="paint0_linear_51_283" x1="261.23" y1="130.66" x2="45.4315" y2="-53.2957" gradientUnits="userSpaceOnUse">
<stop stop-color="white" stop-opacity="0.4"/>
<stop offset="0.5" stop-color="white"/>
<stop offset="1" stop-color="white" stop-opacity="0.4"/>
</linearGradient>
<linearGradient id="paint1_linear_51_283" x1="261.23" y1="130.66" x2="45.4315" y2="-53.2957" gradientUnits="userSpaceOnUse">
<stop stop-color="white" stop-opacity="0.4"/>
<stop offset="0.5" stop-color="white"/>
<stop offset="1" stop-color="white" stop-opacity="0.4"/>
</linearGradient>
<linearGradient id="paint2_linear_51_283" x1="261.23" y1="130.66" x2="45.4315" y2="-53.2957" gradientUnits="userSpaceOnUse">
<stop stop-color="white" stop-opacity="0.4"/>
<stop offset="0.5" stop-color="white"/>
<stop offset="1" stop-color="white" stop-opacity="0.4"/>
</linearGradient>
<linearGradient id="paint3_linear_51_283" x1="261.23" y1="130.66" x2="45.4315" y2="-53.2957" gradientUnits="userSpaceOnUse">
<stop stop-color="white" stop-opacity="0.4"/>
<stop offset="0.5" stop-color="white"/>
<stop offset="1" stop-color="white" stop-opacity="0.4"/>
</linearGradient>
<linearGradient id="paint4_linear_51_283" x1="261.23" y1="130.66" x2="45.4315" y2="-53.2957" gradientUnits="userSpaceOnUse">
<stop stop-color="white" stop-opacity="0.4"/>
<stop offset="0.5" stop-color="white"/>
<stop offset="1" stop-color="white" stop-opacity="0.4"/>
</linearGradient>
<linearGradient id="paint5_linear_51_283" x1="261.23" y1="130.66" x2="45.4315" y2="-53.2957" gradientUnits="userSpaceOnUse">
<stop stop-color="white" stop-opacity="0.4"/>
<stop offset="0.5" stop-color="white"/>
<stop offset="1" stop-color="white" stop-opacity="0.4"/>
</linearGradient>
<linearGradient id="paint6_linear_51_283" x1="261.23" y1="130.66" x2="45.4315" y2="-53.2957" gradientUnits="userSpaceOnUse">
<stop stop-color="white" stop-opacity="0.4"/>
<stop offset="0.5" stop-color="white"/>
<stop offset="1" stop-color="white" stop-opacity="0.4"/>
</linearGradient>
<linearGradient id="paint7_linear_51_283" x1="261.23" y1="130.66" x2="45.4315" y2="-53.2957" gradientUnits="userSpaceOnUse">
<stop stop-color="white" stop-opacity="0.4"/>
<stop offset="0.5" stop-color="white"/>
<stop offset="1" stop-color="white" stop-opacity="0.4"/>
</linearGradient>
<linearGradient id="paint8_linear_51_283" x1="261.23" y1="130.66" x2="45.4315" y2="-53.2957" gradientUnits="userSpaceOnUse">
<stop stop-color="white" stop-opacity="0.4"/>
<stop offset="0.5" stop-color="white"/>
<stop offset="1" stop-color="white" stop-opacity="0.4"/>
</linearGradient>
<linearGradient id="paint9_linear_51_283" x1="261.23" y1="130.66" x2="45.4315" y2="-53.2957" gradientUnits="userSpaceOnUse">
<stop stop-color="white" stop-opacity="0.4"/>
<stop offset="0.5" stop-color="white"/>
<stop offset="1" stop-color="white" stop-opacity="0.4"/>
</linearGradient>
<linearGradient id="paint10_linear_51_283" x1="261.23" y1="130.66" x2="45.4315" y2="-53.2957" gradientUnits="userSpaceOnUse">
<stop stop-color="white" stop-opacity="0.4"/>
<stop offset="0.5" stop-color="white"/>
<stop offset="1" stop-color="white" stop-opacity="0.4"/>
</linearGradient>
<linearGradient id="paint11_linear_51_283" x1="261.23" y1="130.66" x2="45.4315" y2="-53.2957" gradientUnits="userSpaceOnUse">
<stop stop-color="white" stop-opacity="0.4"/>
<stop offset="0.5" stop-color="white"/>
<stop offset="1" stop-color="white" stop-opacity="0.4"/>
</linearGradient>
<linearGradient id="paint12_linear_51_283" x1="261.23" y1="130.66" x2="45.4315" y2="-53.2957" gradientUnits="userSpaceOnUse">
<stop stop-color="white" stop-opacity="0.4"/>
<stop offset="0.5" stop-color="white"/>
<stop offset="1" stop-color="white" stop-opacity="0.4"/>
</linearGradient>
<linearGradient id="paint13_linear_51_283" x1="261.23" y1="130.66" x2="45.4315" y2="-53.2957" gradientUnits="userSpaceOnUse">
<stop stop-color="white" stop-opacity="0.4"/>
<stop offset="0.5" stop-color="white"/>
<stop offset="1" stop-color="white" stop-opacity="0.4"/>
</linearGradient>
<linearGradient id="paint14_linear_51_283" x1="261.23" y1="130.66" x2="45.4315" y2="-53.2957" gradientUnits="userSpaceOnUse">
<stop stop-color="white" stop-opacity="0.4"/>
<stop offset="0.5" stop-color="white"/>
<stop offset="1" stop-color="white" stop-opacity="0.4"/>
</linearGradient>
<linearGradient id="paint15_linear_51_283" x1="261.23" y1="130.66" x2="45.4315" y2="-53.2957" gradientUnits="userSpaceOnUse">
<stop stop-color="white" stop-opacity="0.4"/>
<stop offset="0.5" stop-color="white"/>
<stop offset="1" stop-color="white" stop-opacity="0.4"/>
</linearGradient>
</defs>
</svg>
