<svg width="48" height="48" viewBox="0 0 48 48" fill="none" xmlns="http://www.w3.org/2000/svg">
<rect x="0.517938" y="0.628045" width="46.0687" height="46.0687" rx="23.0343" stroke="white" stroke-opacity="0.1" stroke-width="0.903307"/>
<g clip-path="url(#clip0_586_48)">
<path fill-rule="evenodd" clip-rule="evenodd" d="M77.5786 16.0107L77.2717 14.5534H73.0076V31.8332H77.9342V20.106C79.0998 18.5817 81.0662 18.8784 81.6922 19.0725V14.5554C81.0357 14.3197 78.732 13.8868 77.5786 16.0086V16.0107ZM67.6907 10.2731L62.8779 11.2954L62.8576 27.1098C62.8576 30.0264 65.0506 32.1838 67.9773 32.1838C69.588 32.1838 70.778 31.8769 71.4375 31.5304V27.5163C70.8054 27.7683 67.6948 28.6728 67.6948 25.7684V18.7565H71.4375V14.5524H67.6948L67.6907 10.2731ZM54.3437 19.5674C54.3437 18.7971 54.9839 18.5004 56.0184 18.5004C57.7309 18.5375 59.4113 18.9724 60.9268 19.7707V15.1266C59.3641 14.5121 57.6974 14.2057 56.0184 14.2241C52.0308 14.2241 49.3551 16.3135 49.3551 19.8012C49.3551 25.2583 56.8497 24.3721 56.8497 26.7247C56.8497 27.6454 56.057 27.9299 54.9565 27.9299C53.3244 27.9299 51.2168 27.2551 49.5634 26.3548V31.0599C51.2655 31.8002 53.1004 32.1864 54.9565 32.195C59.0549 32.195 61.88 30.1707 61.88 26.621C61.88 20.731 54.3427 21.7838 54.3427 19.5654L54.3437 19.5674ZM21.3978 17.0726C21.3978 15.6804 22.5563 15.1418 24.4282 15.1418C27.5262 15.2087 30.5662 15.9953 33.3079 17.4395V9.03533C30.4808 7.92431 27.4656 7.37046 24.4282 7.40429C17.213 7.40429 12.3738 11.1836 12.3738 17.4943C12.3738 27.3679 25.9322 25.7644 25.9322 30.0203C25.9322 31.6849 24.5095 32.2011 22.5075 32.2011C19.5554 32.2011 15.7426 30.9796 12.7518 29.3536V37.8675C15.831 39.2073 19.1506 39.9064 22.5085 39.9223C29.9239 39.9223 35.0355 36.2589 35.0355 29.8384C35.0355 19.1823 21.3978 21.0857 21.3978 17.0746V17.0726Z" fill="#6772E5"/>
</g>
<defs>
<clipPath id="clip0_586_48">
<rect width="32.5191" height="32.5191" fill="white" transform="translate(7.29285 7.40295)"/>
</clipPath>
</defs>
</svg>
