<svg width="43" height="44" viewBox="0 0 43 44" fill="none" xmlns="http://www.w3.org/2000/svg">
<rect x="0.0341797" y="0.715576" width="42.5196" height="42.5196" rx="9.27701" fill="#6772E5"/>
<g clip-path="url(#clip0_552_12781)">
<path fill-rule="evenodd" clip-rule="evenodd" d="M64.5134 16.0746L64.269 14.914H60.873V28.6757H64.7966V19.3361C65.7249 18.1221 67.291 18.3585 67.7895 18.513V14.9156C67.2667 14.7278 65.432 14.3831 64.5134 16.0729V16.0746ZM56.6387 11.5051L52.8057 12.3193L52.7895 24.914C52.7895 27.2367 54.536 28.9549 56.8669 28.9549C58.1497 28.9549 59.0974 28.7105 59.6226 28.4345V25.2377C59.1192 25.4384 56.6419 26.1587 56.6419 23.8457V18.2613H59.6226V14.9132H56.6419L56.6387 11.5051ZM46.009 18.9072C46.009 18.2937 46.5189 18.0574 47.3428 18.0574C48.7066 18.0869 50.0449 18.4333 51.2518 19.0691V15.3704C50.0073 14.8811 48.6799 14.6371 47.3428 14.6518C44.167 14.6518 42.036 16.3157 42.036 19.0933C42.036 23.4394 48.0048 22.7337 48.0048 24.6072C48.0048 25.3405 47.3735 25.5671 46.497 25.5671C45.1973 25.5671 43.5187 25.0297 42.202 24.3127V28.0598C43.5575 28.6494 45.0188 28.957 46.497 28.9638C49.761 28.9638 52.011 27.3517 52.011 24.5247C52.011 19.8339 46.0082 20.6723 46.0082 18.9056L46.009 18.9072ZM19.7708 16.9203C19.7708 15.8115 20.6934 15.3826 22.1842 15.3826C24.6515 15.4359 27.0725 16.0624 29.256 17.2125V10.5194C27.0045 9.63454 24.6032 9.19346 22.1842 9.2204C16.438 9.2204 12.584 12.2303 12.584 17.2562C12.584 25.1195 23.382 23.8424 23.382 27.2319C23.382 28.5576 22.2489 28.9687 20.6546 28.9687C18.3035 28.9687 15.2669 27.9959 12.8851 26.701V33.4815C15.3373 34.5485 17.9811 35.1053 20.6554 35.1179C26.561 35.1179 30.6319 32.2003 30.6319 27.087C30.6319 18.6005 19.7708 20.1163 19.7708 16.9219V16.9203Z" fill="white"/>
</g>
<defs>
<clipPath id="clip0_552_12781">
<rect width="25.8983" height="25.8983" fill="white" transform="translate(8.53809 9.21948)"/>
</clipPath>
</defs>
</svg>
