<svg width="222" height="94" viewBox="0 0 222 94" fill="none" xmlns="http://www.w3.org/2000/svg">
<g clip-path="url(#clip0_635_39)">
<path fill-rule="evenodd" clip-rule="evenodd" d="M15.4379 43.056C15.2807 40.6748 17.1761 39.6351 20.4121 39.4215C25.7018 39.1852 30.974 40.1788 35.8139 42.3241L34.8691 28.0129C29.6666 26.33 24.6064 25.8722 19.5397 26.2067C7.14013 27.0253 -0.677037 34.0389 0.0360618 44.8406C1.14803 61.6843 24.1811 57.4655 24.6607 64.7313C24.846 67.5372 22.4621 68.6144 19.0427 68.8402C13.9734 69.1748 7.3616 67.5264 2.04577 65.0565L3.0044 79.5773C8.84601 81.6446 14.6568 82.2741 19.9067 81.9275C32.6119 81.0888 40.9326 74.2259 40.2115 63.3021C38.9499 45.1218 15.8892 49.8917 15.4379 43.056Z" fill="#6772E5"/>
<path fill-rule="evenodd" clip-rule="evenodd" d="M54.8281 11.5859L40.1355 15.7473L43.3015 64.6338C43.8977 73.6649 51.1172 79.8698 60.1559 79.2731C65.1641 78.9424 68.7674 77.7847 70.7112 76.5499L69.8933 64.1607C67.9905 65.0862 58.5258 68.5266 57.9296 59.4955L56.5015 37.8629L68.1066 37.0967L67.2484 24.097L55.6379 24.8634L54.8281 11.5859Z" fill="#6772E5"/>
<path fill-rule="evenodd" clip-rule="evenodd" d="M86.5402 27.3559L85.2646 22.9076L72.0706 23.7786L75.5961 77.182L90.8651 76.1739L88.4757 39.9806C91.7682 35.0441 97.9328 35.4956 99.8715 36.0422L98.9449 22.0071C96.9411 21.4035 89.7081 20.5319 86.5377 27.3588L86.5402 27.3559Z" fill="#6772E5"/>
<path fill-rule="evenodd" clip-rule="evenodd" d="M102.369 17.1207L117.482 12.8169L116.664 0.430332L101.547 4.67573L102.369 17.1207ZM102.675 21.7583L118.005 20.7463L121.53 74.1443L106.2 75.1563L102.675 21.7583Z" fill="#6772E5"/>
<path fill-rule="evenodd" clip-rule="evenodd" d="M149.846 17.6018C143.86 17.9969 140.201 21.0567 138.188 23.1519L137.141 19.4216L123.679 20.3104L128.377 91.4679L143.432 87.2265L142.353 69.9514C144.658 71.3937 148.043 73.4365 153.42 73.0815C164.353 72.3597 173.73 62.9422 172.451 43.5687C171.222 25.8742 160.508 16.8952 149.816 17.601L149.846 17.6018ZM148.955 59.8932C145.352 60.1311 143.132 58.9899 141.558 57.5021L140.002 34.8621C141.474 32.9865 143.591 31.623 147.074 31.3931C152.632 31.0261 156.89 36.9973 157.418 44.9904C157.957 53.1667 154.574 59.5223 148.955 59.8932Z" fill="#6772E5"/>
<path fill-rule="evenodd" clip-rule="evenodd" d="M220.62 40.9992C219.589 25.3766 211.203 13.5457 196.723 14.5016C182.19 15.4611 174.204 28.3701 175.228 43.8705C176.44 62.2406 187.436 70.8305 202.338 69.8467C209.607 69.3668 214.996 67.358 218.995 64.7637L218.189 52.5577C214.174 54.9077 209.494 56.5018 203.447 56.901C197.523 57.2921 192.133 55.563 190.985 48.408L220.849 46.4365C220.796 45.6401 220.709 42.4624 220.612 40.997L220.62 40.9992ZM190.09 37.1943C189.635 30.2976 193.66 27.1524 197.509 26.8982C201.234 26.6523 205.396 29.2571 205.851 36.1539L190.09 37.1943Z" fill="#6772E5"/>
</g>
<defs>
<clipPath id="clip0_635_39">
<rect width="222" height="94" fill="white"/>
</clipPath>
</defs>
</svg>
