<svg width="24" height="24" viewBox="0 0 24 24" fill="none" xmlns="http://www.w3.org/2000/svg">
<g clip-path="url(#clip0_673_10)">
<path d="M0.85498 13.1207H6.98922C7.18087 16.6676 8.31144 20.0998 10.2652 23.0663C7.81795 22.6819 5.56704 21.4973 3.86444 19.6979C2.16184 17.8984 1.10353 15.5855 0.85498 13.1207ZM0.85498 10.8807C1.10353 8.41588 2.16184 6.10294 3.86444 4.30347C5.56704 2.50401 7.81795 1.31947 10.2652 0.935059C8.31144 3.9015 7.18087 7.33378 6.98922 10.8807H0.85498ZM23.143 10.8807H17.0088C16.8171 7.33378 15.6865 3.9015 13.7328 0.935059C16.18 1.31947 18.4309 2.50401 20.1335 4.30347C21.8361 6.10294 22.8944 8.41588 23.143 10.8807ZM23.143 13.1207C22.8944 15.5855 21.8361 17.8984 20.1335 19.6979C18.4309 21.4973 16.18 22.6819 13.7328 23.0663C15.6865 20.0998 16.8171 16.6676 17.0088 13.1207H23.1441H23.143ZM9.23258 13.1207H14.7654C14.581 16.1441 13.6289 19.0706 11.999 21.6237C10.3691 19.0706 9.41693 16.1441 9.23258 13.1207ZM9.23258 10.8807C9.41693 7.85724 10.3691 4.93073 11.999 2.37762C13.6289 4.93073 14.581 7.85724 14.7654 10.8807H9.23258Z" fill="url(#paint0_linear_673_10)"/>
</g>
<defs>
<linearGradient id="paint0_linear_673_10" x1="18.5178" y1="58.3174" x2="-6.24927" y2="55.067" gradientUnits="userSpaceOnUse">
<stop stop-color="white" stop-opacity="0.4"/>
<stop offset="0.5" stop-color="white"/>
<stop offset="1" stop-color="white" stop-opacity="0.4"/>
</linearGradient>
<clipPath id="clip0_673_10">
<rect width="24" height="24" fill="white"/>
</clipPath>
</defs>
</svg>
