<svg width="37" height="38" viewBox="0 0 37 38" fill="none" xmlns="http://www.w3.org/2000/svg">
<path d="M13.2287 10.5045C13.5517 10.5177 13.909 10.5328 14.2485 11.2875C14.4805 11.8034 14.8709 12.7651 15.182 13.5316C15.4113 14.0964 15.5975 14.5552 15.6455 14.6513C15.7588 14.8779 15.8343 15.1425 15.6833 15.4452C15.6607 15.4904 15.6397 15.5331 15.6198 15.5739C15.5062 15.8056 15.4228 15.9758 15.2306 16.2009C15.1552 16.2888 15.0773 16.3836 14.9994 16.4783C14.843 16.6686 14.6865 16.8589 14.5507 16.9945C14.3234 17.2204 14.0873 17.4659 14.3516 17.9191C14.6161 18.3728 15.5256 19.8562 16.8728 21.0573C18.32 22.3477 19.5773 22.8934 20.2157 23.1706C20.3411 23.225 20.4427 23.2691 20.5171 23.3064C20.9703 23.533 21.2347 23.4953 21.499 23.1924C21.7635 22.8902 22.6314 21.8697 22.9336 21.4165C23.2357 20.9628 23.5379 21.0384 23.9533 21.1895C24.3688 21.3405 26.5968 22.437 27.05 22.6636C27.1384 22.7078 27.221 22.7477 27.2976 22.7846C27.6139 22.9373 27.8274 23.0404 27.9187 23.1924C28.032 23.382 28.032 24.2889 27.6543 25.347C27.2766 26.4052 25.4264 27.4257 24.5955 27.5012C24.5155 27.5085 24.436 27.5179 24.3542 27.5275C23.5864 27.6178 22.6171 27.7317 19.1574 26.3675C14.9002 24.6886 12.0932 20.5283 11.5133 19.6688C11.4658 19.5983 11.4332 19.55 11.416 19.5271L11.411 19.5204C11.1666 19.1938 9.56557 17.0541 9.56557 14.8402C9.56557 12.7532 10.5914 11.6592 11.0634 11.1559C11.0957 11.1215 11.1253 11.0899 11.1519 11.0609C11.5671 10.6074 12.0581 10.4939 12.3602 10.4939C12.3768 10.4939 12.3934 10.4939 12.4099 10.4939C12.6952 10.4938 12.9791 10.4938 13.2287 10.5045Z" fill="white" fill-opacity="0.75"/>
<path fill-rule="evenodd" clip-rule="evenodd" d="M3.08322 27.9061C1.47327 25.1618 0.631711 22.0517 0.631711 18.8318C0.631711 8.84283 8.79121 0.719925 18.7802 0.719925C23.6466 0.719925 28.1837 2.62259 31.6232 6.02543C35.026 9.46486 36.9287 14.002 36.9287 18.8684C36.9287 28.8574 28.7692 36.9803 18.7802 36.9803C15.7432 36.9803 12.7429 36.2485 10.1084 34.7849L0.485352 37.3096L3.08322 27.9061ZM6.01039 26.8815L6.37629 27.4304L4.83952 32.992L10.5475 31.4918L11.0964 31.8211C13.4015 33.2116 16.0726 33.9434 18.7802 33.9434C27.086 33.9434 33.8551 27.1743 33.8551 18.8684C33.8551 14.8435 32.2818 11.0382 29.4278 8.18422C26.6104 5.36681 22.8051 3.79346 18.7802 3.79346C10.4743 3.79346 3.70524 10.526 3.70524 18.8684C3.70524 21.6858 4.51021 24.4666 6.01039 26.8815Z" fill="white" fill-opacity="0.75"/>
</svg>
